Coordinates
version=1
nRows=8
nColumns=40
inDegrees=yes

Units are S.I. units (second, meters, Newtons, ...)
If the header above contains a line with 'inDegrees', this indicates whether rotational values are in degrees (yes) or radians (no).

endheader
time	pelvis_tilt	pelvis_list	pelvis_rotation	pelvis_tx	pelvis_ty	pelvis_tz	hip_flexion_r	hip_adduction_r	hip_rotation_r	knee_angle_r	knee_angle_r_beta	ankle_angle_r	subtalar_angle_r	mtp_angle_r	hip_flexion_l	hip_adduction_l	hip_rotation_l	knee_angle_l	knee_angle_l_beta	ankle_angle_l	subtalar_angle_l	mtp_angle_l	lumbar_extension	lumbar_bending	lumbar_rotation	arm_flex_r	arm_add_r	arm_rot_r	elbow_flex_r	pro_sup_r	wrist_flex_r	wrist_dev_r	arm_flex_l	arm_add_l	arm_rot_l	elbow_flex_l	pro_sup_l	wrist_flex_l	wrist_dev_l
      3.90000000	    -38.56517371	      2.93071547	      6.05023018	     -0.40062632	      0.68623027	     -1.00851811	     44.04030984	     -6.96594634	     -4.50800646	    100.43453408	      1.75291330	    -10.06029637	      0.00000000	      0.00000000	     90.68466014	      3.23666528	    -12.60181737	     81.55541823	      1.42341057	     19.32802557	      0.00000000	      0.00000000	     -5.97596146	    -10.45111360	     -5.86740428	     89.95289674	    -13.25638210	      2.33506025	     48.47802726	     60.55271366	      0.00000000	      0.00000000	     89.95767079	    -24.21835161	      6.24782164	     56.69949648	     64.43522274	      0.00000000	      0.00000000
      3.90500000	    -38.59560665	      2.83092129	      6.07007853	     -0.40053059	      0.68634568	     -1.00849978	     44.05660431	     -6.90326553	     -4.58731588	    100.38554458	      1.75205827	    -10.19515625	      0.00000000	      0.00000000	     90.71471929	      3.19776320	    -12.55660732	     81.56810076	      1.42363192	     19.25278774	      0.00000000	      0.00000000	     -5.90220470	    -10.35772303	     -5.88416539	     89.95295909	    -13.31483502	      1.34929417	     48.09853492	     72.22754265	      0.00000000	      0.00000000	     89.95771241	    -24.26192099	      5.14615238	     56.27656604	     78.75231582	      0.00000000	      0.00000000
      3.91000000	    -38.58902796	      2.86134570	      6.07657544	     -0.40041679	      0.68656672	     -1.00854480	     44.03506887	     -6.95910003	     -4.57422147	    100.36439120	      1.75168908	    -10.21613255	      0.00000000	      0.00000000	     90.65570166	      3.19544508	    -12.60863231	     81.51054895	      1.42262745	     19.26901436	      0.00000000	      0.00000000	     -5.89768999	    -10.39959372	     -5.89954335	     89.95296196	    -13.31616471	      1.49987323	     48.19567495	     70.43092107	      0.00000000	      0.00000000	     89.95774244	    -24.26761967	      5.32940851	     56.37969360	     76.40738981	      0.00000000	      0.00000000
      3.91500000	    -38.48409228	      3.11705075	      6.09930510	     -0.39998547	      0.68705140	     -1.00872088	     43.87862041	     -7.26172395	     -4.42986035	    100.35198170	      1.75147249	    -10.22080344	      0.00000000	      0.00000000	     90.40906186	      3.24866318	    -12.89450105	     81.41474705	      1.42095540	     19.30845055	      0.00000000	      0.00000000	     -6.01249709	    -10.67356256	     -5.97155200	     89.95287462	    -13.29141743	      1.66458478	     48.20263831	     68.87876586	      0.00000000	      0.00000000	     89.95771705	    -24.29063192	      5.52073203	     56.44032955	     74.46027568	      0.00000000	      0.00000000
      3.92000000	    -38.41404319	      3.03059560	      6.17096051	     -0.39983578	      0.68730262	     -1.00877528	     43.72979928	     -7.24791832	     -4.56381707	    100.32062303	      1.75092518	     -9.89953018	      0.00000000	      0.00000000	     90.35659242	      3.28332672	    -12.82411399	     81.44677079	      1.42151432	     19.19596823	      0.00000000	      0.00000000	     -6.06056505	    -10.59963887	     -6.00074371	     89.95294628	    -13.29841139	      1.70238464	     48.27647184	     67.17905393	      0.00000000	      0.00000000	     89.95764672	    -24.14863558	      5.58528708	     56.50837102	     72.44753187	      0.00000000	      0.00000000
      3.92500000	    -38.45905359	      3.08598629	      6.17116124	     -0.39975695	      0.68753797	     -1.00882655	     43.79521959	     -7.33559716	     -4.50724736	    100.29848863	      1.75053886	    -10.21125376	      0.00000000	      0.00000000	     90.30943178	      3.27658567	    -12.91579148	     81.32319447	      1.41935750	     19.23589200	      0.00000000	      0.00000000	     -5.99495883	    -10.66040277	     -6.02762942	     89.95289586	    -13.29828208	      1.28744977	     48.13564891	     72.31923657	      0.00000000	      0.00000000	     89.95772181	    -24.26334458	      5.15861112	     56.37958304	     78.69870594	      0.00000000	      0.00000000
      3.93000000	    -38.44722827	      3.03740514	      6.21860730	     -0.39965227	      0.68771312	     -1.00887485	     43.73548348	     -7.33703707	     -4.57852593	    100.27511402	      1.75013090	    -10.02407229	      0.00000000	      0.00000000	     90.28747631	      3.31263285	    -12.85976578	     81.29983349	      1.41894978	     19.20293185	      0.00000000	      0.00000000	     -5.96915662	    -10.62903477	     -6.07074191	     89.95291979	    -13.28898868	      1.40409106	     48.12618654	     70.45597499	      0.00000000	      0.00000000	     89.95782505	    -24.18008174	      5.26502983	     56.41418975	     76.29860803	      0.00000000	      0.00000000
      3.93500000	    -38.44561000	      3.08302549	      6.21818162	     -0.39954807	      0.68790575	     -1.00891800	     43.73577957	     -7.41460536	     -4.54290055	    100.26725920	      1.74999380	    -10.19607538	      0.00000000	      0.00000000	     90.24623935	      3.30112644	    -12.93592761	     81.26714107	      1.41837919	     19.19054111	      0.00000000	      0.00000000	     -5.95004635	    -10.68735599	     -6.10385288	     89.95285857	    -13.29060918	      1.23818810	     48.09393765	     72.81903736	      0.00000000	      0.00000000	     89.95783050	    -24.23674414	      5.14415891	     56.43037210	     78.40346924	      0.00000000	      0.00000000
